<svg t="1596173905669" class="icon" viewBox="0 0 1025 1024" version="1.1" xmlns="http://www.w3.org/2000/svg" p-id="2671" fill="#fb7299"><path d="M1024 344.746667c-3.413333-143.36-128-170.666667-128-170.666667s-97.28 0-223.573333-1.706667l92.16-88.746666s13.653333-18.773333-10.24-39.253334c-23.893333-20.48-27.306667-11.946667-34.133334-6.826666-8.533333 5.12-117.76 114.346667-136.533333 133.12h-153.6 18.773333s-131.413333-129.706667-139.946666-136.533334c-8.533333-5.12-10.24-13.653333-34.133334 6.826667-23.893333 20.48-10.24 39.253333-10.24 39.253333l93.866667 92.16c-102.4 0-191.146667 0-232.106667 1.706667-133.12 37.546667-122.88 170.666667-122.88 170.666667s1.706667 285.013333 0 430.08c13.653333 145.066667 124.586667 167.253333 124.586667 167.253333s44.373333 1.706667 76.8 1.706667c3.413333 8.533333 6.826667 54.613333 56.32 54.613333s56.32-54.613333 56.32-54.613333 368.64-1.706667 399.36-1.706667c1.706667 15.36 8.533333 58.026667 59.733333 56.32 49.493333-1.706667 54.613333-59.733333 54.613334-59.733333s17.066667-1.706667 68.266666 0c119.466667-22.186667 126.293333-162.133333 126.293334-162.133334s-3.413333-288.426667-1.706667-431.786666z m-104.106667 455.68c0 22.186667-17.066667 40.96-39.253333 40.96H153.6c-22.186667 0-39.253333-18.773333-39.253333-40.96V319.146667c0-22.186667 18.773333-40.96 39.253333-40.96h727.04c22.186667 0 39.253333 18.773333 39.253333 40.96v481.28z" p-id="2672"></path><path d="M404.48 414.72l-213.333333 40.96 18.773333 80.213333L419.84 494.933333l-15.36-80.213333z m114.346667 211.626667c-52.906667 112.64-98.986667 27.306667-98.986667 27.306666l-34.133333 22.186667s68.266667 93.866667 134.826666 22.186667c76.8 71.68 136.533333-22.186667 136.533334-22.186667l-32.426667-20.48s-56.32 80.213333-105.813333-29.013333z m105.813333-133.12L836.266667 534.186667l17.066666-80.213334-213.333333-40.96c1.706667 0-15.36 80.213333-15.36 80.213334z" p-id="2673"></path></svg>