<svg t="1596178071282" class="icon" viewBox="0 0 1024 1024" version="1.1" xmlns="http://www.w3.org/2000/svg" p-id="8946" fill="#999999"><path d="M830.456 317.426c9.169-6.85 22.184-4.584 28.293 3.844 6.873 9.169 4.585 22.182-4.583 28.29L529.94 585.067c-7.639 5.348-16.807 4.586-23.71 0L181.267 349.563c-9.168-6.111-10.696-19.122-4.583-28.291 6.902-8.428 19.124-10.695 28.291-3.844l312.744 226.334 312.738-226.336z m-659.12-140.671h692.76c22.944 0 43.596 9.169 58.116 24.447 14.541 14.54 23.706 35.195 23.706 57.374v516.135c0 22.154-9.167 42.806-23.706 58.11-15.282 14.519-35.172 23.683-58.116 23.683h-692.76c-22.184 0-42.81-9.167-57.348-23.683-15.28-15.304-24.472-35.19-24.472-58.11V258.574c0-22.18 9.191-42.834 24.472-57.374 14.538-15.278 35.166-24.445 57.348-24.445z m692.76 40.515h-692.76c-11.46 0-21.418 4.584-29.057 12.223-7.64 7.639-12.225 17.598-12.225 29.081V774.71c0 11.459 4.586 22.153 12.225 29.055 7.639 7.641 17.596 12.223 29.057 12.223h692.76c11.485 0 22.182-4.58 29.823-12.223 6.873-6.9 11.483-17.596 11.483-29.055V258.574c0-11.483-4.61-21.442-11.483-29.081-7.64-7.64-18.338-12.223-29.823-12.223zM506.231 585.066c-2.265-1.527-3.793-3.055-4.584-4.583" p-id="8947"></path></svg>