<svg t="1596175253744" class="icon" viewBox="0 0 1049 1024" version="1.1" xmlns="http://www.w3.org/2000/svg" p-id="3617" fill="#e44c3f"><path d="M2.778 0z m760.6 502.534q-15.746-3.155-20.446-9.434t-1.577-11.548l3.155-5.238q1.04-1.04 2.114-3.155t4.198-8.93 4.733-13.63 2.618-16.785-0.536-18.9-6.312-19.405-13.127-18.901q-14.704-14.704-38.306-18.9t-47.203-0.537-44.582 9.434-34.612 11.012l-13.63 6.312q-10.508 3.155-17.324 4.197t-10.507-0.536-5.775-3.155-1.577-7.352 1.04-9.97 2.618-13.127 3.155-14.168q0-12.589-1.578-23.6t-6.815-24.641-15.208-22.024-25.18-13.63-39.346-3.155-54.555 12.59q-36.727 12.588-74.494 37.23t-65.564 51.398-50.895 51.935-35.686 40.924l-11.549 16.785q-34.612 45.12-51.397 90.24t-15.745 68.186v22.023q6.312 50.357 30.952 90.24t58.75 64.524 80.27 41.965 88.662 25.18T431.821 877q77.651 6.312 161.042-12.053t155.27-63.484 101.25-108.067q17.827-36.727 18.365-69.259t-11.012-52.976-29.912-36.19-34.612-23.097-28.838-9.434zM443.405 828.816q-113.304 5.238-192.5-44.079T171.71 659.885q0-74.495 78.691-128.513t193.037-59.287 193.037 37.767 78.691 117.5q0 75.537-80.269 135.865T443.44 828.78z m-30.415-290.63q-30.415 3.155-54.555 14.168t-37.767 25.18-23.097 30.414-13.127 31.994-4.733 28.837-1.04 20.445l1.04 8.394v4.197q0 3.155 2.114 12.589t5.775 17.323 12.053 17.323 19.942 15.745q69.258 33.572 129.048 20.445t96.518-60.327q14.704-17.826 19.405-44.08t-2.115-52.975-23.6-48.78-49.82-34.109-76.075-6.815z m-37.77 198.309q-6.311 1.04-12.052 0.536t-10.507-2.115-9.434-3.658-7.855-5.775-5.775-7.352-4.197-8.393-1.578-9.97q0-11.549 6.312-22.56t17.323-18.9 24.642-8.93q9.434-1.04 18.364 0.536t15.209 5.237 11.012 8.394 6.815 11.012 2.115 13.63q0 11.548-6.815 22.023t-18.365 17.827-25.18 8.393z m89.167-75.537q-7.352 5.238-15.208 4.734t-11.013-6.815l-2.114-4.197q-1.04-2.115-1.04-4.198v-4.197q0-3.155 1.04-5.237l2.114-4.198q1.04-2.114 3.155-3.155l3.155-4.197q8.394-6.312 16.25-5.237t11.011 8.393q3.155 4.197 2.618 9.434t-3.155 9.97-6.815 8.93z m372.443-219.29q6.312 0 11.549-3.154t8.393-7.856 4.197-9.97q1.04-1.04 1.04-3.155 12.59-119.616-83.93-136.4-28.334-5.238-52.471-1.04-7.352 0-12.589 3.657t-8.93 9.434-3.658 12.052q0 10.508 7.353 17.827t17.826 7.352q81.847-18.9 88.125 52.472 2.115 17.826-2.115 33.572 0 10.507 7.353 17.826t17.826 7.352z m-17.826-295.832q-46.16-10.508-123.812 4.197-1.04 0-2.115 1.04l-1.04 2.115-1.04 1.04q-11.549 3.155-18.901 13.127t-7.352 21.519q0 15.744 10.507 26.22t25.18 10.507h3.154q1.04 0 4.734-1.04t7.855-1.578 8.93-2.115 8.393-3.155 14.168-1.577 25.715 1.577 33.572 7.855 36.727 15.745 36.727 26.22 31.994 38.808q27.294 61.907 10.507 119.616 0 1.04-0.536 2.115t-1.578 5.237-2.114 7.856-2.115 9.433-1.04 9.97q0 9.434 5.237 15.745t13.127 8.93 18.365 2.618q29.375 0 34.612-35.687 12.589-40.924 14.167-78.155t-5.237-65.565-20.445-52.976-31.49-41.964-39.883-31.49-42.502-22.56-42.501-13.63z" p-id="3618"></path></svg>