<svg t="1596175352523" class="icon" viewBox="0 0 1024 1024" version="1.1" xmlns="http://www.w3.org/2000/svg" p-id="4370" fill="#0084ff"><path d="M277.845333 85.418667c0.896 2.901333-0.682667 5.12-1.450666 7.338666-5.034667 14.848-10.496 29.525333-15.189334 44.458667-6.4 20.565333-12.330667 41.344-18.432 62.037333-0.512 1.706667-0.768 3.498667-1.237333 5.674667 1.493333 0.341333 2.688 0.768 3.925333 0.853333H491.904c2.688 0 5.376 0 8.021333 0.085334a17.237333 17.237333 0 0 1 14.592 8.362666c2.261333 3.626667 4.309333 7.552 5.546667 11.605334 4.181333 14.336 4.949333 29.056 3.968 43.946666-0.042667 0.597333-0.469333 1.237333-0.810667 2.005334-5.504 0.853333-11.093333 0.298667-16.597333 0.426666l-8.021333 0.042667H380.928c-1.877333 0-3.84 0.085333-5.802667 0.256-0.128 2.389333-0.384 4.394667-0.384 6.4-0.213333 22.741333-0.128 45.482667-0.597333 68.266667-0.64 28.842667-1.621333 57.728-2.688 86.613333-0.597333 16.810667-1.706667 33.621333-2.56 50.432-0.128 1.792 0 3.584 0 5.162667 2.602667 1.664 5.12 1.024 7.552 1.024H515.072c1.536 0 3.114667 0.128 4.693333 0a11.434667 11.434667 0 0 1 10.666667 5.802666 41.813333 41.813333 0 0 1 4.864 9.642667c1.792 5.632 3.157333 11.392 4.352 17.152 2.218667 10.709333 2.645333 21.674667 3.328 32.554667 0.085333 1.28-0.128 2.645333-0.213333 4.394666-1.536 0.170667-2.773333 0.426667-4.053334 0.512l-2.986666 0.042667H371.968c-2.645333 0-5.376-0.426667-8.277333 0.682667-0.256 1.706667-0.725333 3.413333-0.853334 5.205333a522.666667 522.666667 0 0 1-19.882666 106.368c-0.426667 1.493333-0.64 3.114667-0.938667 4.650667l-0.426667 1.578666 1.536-0.298666c6.144-4.864 12.373333-9.685333 18.517334-14.592 5.802667-4.608 11.52-9.301333 17.322666-13.952 1.237333-0.981333 2.517333-1.834667 4.053334-2.986667 1.749333 1.706667 3.413333 3.2 4.864 4.864 15.274667 17.237333 30.677333 34.304 45.653333 51.797333 17.792 20.693333 35.157333 41.813333 52.906667 62.592 6.144 7.253333 10.154667 15.402667 12.672 24.490667 2.474667 9.045333 3.626667 18.304 3.882666 27.648 0.682667 22.912-2.773333 45.354667-8.106666 67.498667-0.256 0.853333-0.768 1.621333-1.365334 2.944-1.493333-1.578667-2.730667-2.688-3.84-4.010667l-57.344-70.357333-90.709333-111.317334c-1.365333-1.706667-2.474667-3.754667-4.48-4.693333-1.749333 0.768-1.450667 2.389333-1.877333 3.541333-0.426667 1.066667-0.64 2.133333-0.938667 3.285334a590.848 590.848 0 0 1-26.666667 77.866666c-14.549333 34.133333-32.128 66.517333-54.528 96-2.346667 3.072-4.821333 5.973333-7.168 9.045334-13.738667 17.92-31.658667 29.866667-52.224 37.973333a168.96 168.96 0 0 1-101.248 8.021333c-2.304-0.512-4.565333-1.322667-7.168-2.133333 1.28-2.645333 3.328-3.669333 4.992-5.034667 19.2-15.616 37.546667-32.213333 54.869334-50.005333 38.826667-39.850667 71.253333-84.437333 95.914666-134.784 20.138667-41.173333 34.346667-84.394667 42.410667-129.664 2.56-14.293333 4.266667-28.757333 6.272-43.178667 0.426667-2.645333 0.426667-5.376 0.554667-8.362666-1.706667-0.256-2.944-0.597333-4.224-0.682667H280.106667l-172.117334-0.042667c-2.645333 0-5.333333 0.554667-7.978666-0.768 0.042667-1.194667 0-2.346667 0.213333-3.413333 2.645333-12.501333 5.973333-24.746667 11.52-36.266667 2.56-5.290667 5.632-10.325333 8.832-15.232a34.261333 34.261333 0 0 1 9.472-9.514666 24.533333 24.533333 0 0 1 14.421333-4.821334H288.426667c2.602667 0 5.290667 0.298667 8.106666-0.597333 0.256-1.109333 0.64-2.176 0.725334-3.242667 0.256-3.413333 0.469333-6.826667 0.597333-10.24 0.597333-23.466667 1.194667-46.848 1.706667-70.272 0.853333-39.381333 1.621333-78.72 2.389333-118.101333 0.085333-4.949333 0.426667-9.941333-0.213333-15.189333-1.322667-0.213333-2.389333-0.554667-3.413334-0.554667H220.672c-0.64 0-1.28 0.213333-2.346667 0.341333-0.597333 1.493333-1.365333 3.114667-1.962666 4.778667l-11.946667 34.048c-0.853333 2.346667-1.749333 4.693333-2.986667 6.826667-18.858667 33.408-46.933333 53.504-84.096 60.330666-5.973333 1.109333-11.946667 1.664-17.92 2.432-0.853333 0.085333-1.706667-0.128-2.986666-0.213333 0.64-1.749333 1.066667-3.242667 1.706666-4.650667 29.738667-61.525333 53.589333-125.44 74.794667-190.506666l10.666667-32.298667c10.325333-30.805333 31.146667-50.773333 61.013333-61.568 9.045333-3.242667 18.432-5.205333 27.989333-6.357333 1.706667-0.170667 3.541333 0 5.248 0zM935.978667 194.56c0.64 0 1.28 0.298667 2.133333 0.554667 0.170667 0.853333 0.512 1.706667 0.512 2.56L938.666667 839.637333c-2.090667 1.962667-4.181333 1.450667-6.101334 1.450667h-42.837333c-29.696 0-59.392 0.085333-89.088-0.042667a20.821333 20.821333 0 0 0-11.861333 3.498667c-36.650667 23.552-73.301333 46.933333-109.994667 70.4-2.005333 1.28-3.925333 2.901333-6.698667 3.584-3.285333-8.448-5.12-17.066667-7.68-25.514667-2.56-8.490667-4.864-17.066667-7.338666-25.557333-2.432-8.490667-4.949333-16.938667-7.424-25.386667-2.56-1.408-5.034667-0.938667-7.424-0.938666h-52.906667c-2.389333 0-4.821333-0.170667-7.68-0.213334-0.213333-1.706667-0.426667-2.944-0.512-4.224-0.085333-1.792 0-3.626667 0-5.461333V195.456c1.408-0.469333 2.048-0.853333 2.645333-0.853333h352.213334z m-277.546667 70.4c-1.28 0.085333-2.56 0.341333-3.712 0.512-1.066667 7.381333-1.621333 475.989333-0.682667 511.232 0.042667 1.322667 0.298667 2.645333 0.426667 4.309333 11.434667 0.938667 22.613333-0.170667 34.005333 0.768 0.768 2.304 1.536 4.437333 2.133334 6.613334l11.093333 39.466666c0.554667 1.92 0.810667 4.010667 2.517333 5.973334 2.218667-1.365333 4.352-2.56 6.4-3.925334 23.125333-15.061333 46.293333-30.08 69.376-45.269333a19.370667 19.370667 0 0 1 11.306667-3.328c22.4 0.170667 44.8 0.085333 67.242667 0.085333h8.106666c0.085333-3.754667 0.213333-6.485333 0.213334-9.258666V274.474667c0-1.621333 0.085333-3.242667 0-4.864-0.085333-1.365333-0.341333-2.645333-0.597334-4.437334-2.901333-0.042667-5.546667-0.170667-8.192-0.170666h-199.637333z" p-id="4371"></path></svg>