<svg t="1596176726344" class="icon" viewBox="0 0 1024 1024" version="1.1" xmlns="http://www.w3.org/2000/svg" p-id="5241" fill="#24292e"><path d="M874.144 200.928h-0.032c37.536-69.728-5.344-160.928-5.344-160.928-96.544 0-166.304 64.352-166.304 64.352-37.536-21.44-160.928-21.44-160.928-21.44s-123.392 0-160.928 21.44c0 0-69.728-64.352-166.304-64.352 0 0-42.912 91.168-5.376 160.928 0 0-85.824 80.448-53.632 252.096 30.272 161.28 171.648 203.808 262.816 203.808 0 0-37.536 32.192-32.192 85.824 0 0-53.632 32.192-107.264 10.72s-80.448-75.072-80.448-75.072-53.632-69.728-107.264-42.912c0 0-16.096 16.096 42.912 42.912 0 0 42.912 64.384 58.976 101.888s101.888 69.728 187.744 48.256v123.328s0 10.72-21.44 16.096c-21.44 5.408-21.44 16.128-10.688 16.128h386.208c10.72 0 10.72-10.72-10.72-16.096s-21.44-16.096-21.44-16.096V828.48s0.48-64.32 0-85.824c-1.184-53.888-37.536-85.824-37.536-85.824 91.168 0 232.576-42.528 262.816-203.808 32.192-171.68-53.632-252.128-53.632-252.128z m0.608 242.176c-28.512 152.128-179.776 159.84-209.824 159.84 0 0-26.368 0.288-38.688 7.104s-24.768 45.376-16.64 64.16c8.128 18.816 19.744 23.232 19.744 23.232 0.064 0.096 18.56 17.984 19.2 46.432 0.448 20.448 0 83.584 0 84.224v101.984h-213.952v-153.664l8.48-5.056-3.392-34.048c-2.4-24 13.792-39.616 14.496-40.256 0 0 13.728-14.784 18.368-29.12s-1.632-43.872-6.976-52.704-13.376-12.288-21.408-12.672-25.952 0.384-25.952 0.384c-30.016 0-181.248-7.712-209.792-159.84-25.792-137.408 35.488-200.8 38.112-203.392l30.272-28.384-20.288-35.936c-12.224-22.688-10.112-52.928-4.672-77.216a225.248 225.248 0 0 1 92.256 45.856l29.024 26.784 34.304-19.616c14.432-7.456 78.432-14.336 134.144-14.336 56.768 0.032 119.552 6.784 134.304 14.432l34.304 19.616 28.896-26.88c0.256-0.224 38.176-33.824 92.288-45.856 5.408 24.256 7.552 54.496-4.704 77.184l-42.816 79.52h64.704c16.992 25.92 45.248 86.976 26.272 188.224z" p-id="5242"></path></svg>