<svg class="icon" xmlns="http://www.w3.org/2000/svg" viewBox="0 0 66.92632 88.856" fill="#528b61"><defs><style>.cls-1{fill:#ffffff00;}</style></defs><path d="M535.4,450.78c.31995-1.94-.12-2.54-1.97-3.25a7.51305,7.51305,0,0,0-.8-.27c-4.38-1-8.78-1.73-13.3-.94a2.82331,2.82331,0,0,1-1.55-.28,41.35954,41.35954,0,0,0-4.87006-2.29,35.22654,35.22654,0,0,0-19.29-.48,1.749,1.749,0,0,1-1.22-.11005A26.14545,26.14545,0,0,0,482.21,439.84a27.329,27.329,0,0,0-4.05-.16,1.64038,1.64038,0,0,0-1.73,1.63c-.23,2.11-.58,4.21-.63,6.32-.09,3.67-.15,7.37,1.45,10.83a1.45244,1.45244,0,0,1,.06.92,56.80764,56.80764,0,0,0-1.51,12.59c-.03,1.05-.01,2.1-.01,3.41-2.03-2.07-2.61-2.17-4.83-.9a5.78121,5.78121,0,0,0-1.7,1.3,2.4692,2.4692,0,0,0-.66,1.78,15.46787,15.46787,0,0,0,1.7,4.01c2.03,3.21,4.22,6.31,6.34,9.46a2.13315,2.13315,0,0,1,.4.95c.05,4.03-.15,8.08.15,12.09.3,3.96,1.09,7.88,1.65,11.73,2.45-.42,4.54-.71,6.66.05-.08,1.14-.15,2.23-.22,3.33-.43-.06-.77-.11-1.24-.17v1.94c-.11,0-.22-.01-.33-.02-.3.54-.91,1.11-.85,1.62a4.01626,4.01626,0,0,1-1.11,2.89,3.22739,3.22739,0,0,0-.64,2.19h.5a36.40218,36.40218,0,0,1,1.61-3.67c7.18,2.09,14.39,1.74,21.6.96,2.46-.26,4.89-.79,7.32-1.25a1.00546,1.00546,0,0,1,1.29.64c.6,1.11,1.34,2.13,2.12,3.32h.42a3.30223,3.30223,0,0,0-.69995-1.73,9.5034,9.5034,0,0,1-2.12-4.21c-.07-.45-.53-.84-.94-1.45a2.59167,2.59167,0,0,0,.03-1.23c-.16-.33-.78-.45-1.32-.73a5.08611,5.08611,0,0,0,1.31-.59c.77-.72,1.43-1.54,2.18-2.27a1.09732,1.09732,0,0,1,.81-.36c2.31006.42,4.62006.88,6.91,1.39a5.99387,5.99387,0,0,1,1.32.63c6.57-12.32,7.68-25.64,7.96-39.14l.28-6.34c-.36-2.26-.73-4.42-1.02-6.58a2.34229,2.34229,0,0,1,.23-1.41A37.71092,37.71092,0,0,0,535.4,450.78Zm-58.15,1.8c.02-3.35.22-6.7.36-10.04.04-1.06.43-1.58,1.68-1.54a29.54049,29.54049,0,0,1,12.08,2.83,3.21334,3.21334,0,0,1-2.95.6c-2.57-.7-5.21-1.12-7.82995-1.64-.88-.17-1.33.22-1.46,1.11a37.42494,37.42494,0,0,0-.11,10.03,8.50053,8.50053,0,0,1-.63,2.79c-.18-.01-.37-.03-.55-.05A26.17567,26.17567,0,0,1,477.25,452.58Zm11.81-7.56a28.002,28.002,0,0,0-9.7,8.79,23.55556,23.55556,0,0,1-.28-3.01c.06-2.19.24-4.38.35-6.57.05-.86.41-1.19,1.29-1.1A28.20476,28.20476,0,0,1,489.06,445.02Zm-10.33,50.22c-.24,2.78-.25,5.57-.35,8.36-.02.59,0,1.18,0,1.77h-.37c-.12-4.08-.24-8.16-.37-12.55A2.383,2.383,0,0,1,478.73,495.24Zm3.26,1.22c-3.08-3.93-5.98-8-8.89-12.06-1.23-1.71-2.37-3.5-3.43-5.33-.88-1.54-.7-2.06.66-3.17.19-.15.38995-.29.59-.42,2.36005-1.52,3.69-1.07,4.66,1.57a1.28356,1.28356,0,0,1-.44,1.68c-.73.54-1.41,1.12-2.12,1.69.06.11005.12.23.19.35.58-.19,1.17-.39,1.86-.62a47.55774,47.55774,0,0,1,4.48,5.56,17.90428,17.90428,0,0,0,7.36,7,1.99515,1.99515,0,0,1,1.23,1.59,21.40617,21.40617,0,0,0,.8,2.24,1.97165,1.97165,0,0,1,.02,1.29c-.63,1.19-1.38,2.32-2.1,3.48A53.08552,53.08552,0,0,1,481.99,496.46Zm18.75,8.23c0,1.79-1.55,3.07-3.69,3.05-1.79-.01-3.1-1.12-3.1-2.62.01-1.65,1.74-3.66,3.18-3.68A3.56581,3.56581,0,0,1,500.74,504.69Zm-1.45-3.97c1.67-1.23,3.45-2.56,5.24-3.85.68-.48,4.49-.59,5.11-.1C506.63,499.52,502.87,500.13,499.29,500.72Zm-10.4-6.96c1.88.61,3.62.96,4.63,2.9a21.96147,21.96147,0,0,0,3.03,3.74A8.73853,8.73853,0,0,1,488.89,493.76Zm-4.69,20.56c.1-3.29,2.44-10.43,5.44-16.62,1.61,1.34,3.2,2.66,5.08,4.23a11.4098,11.4098,0,0,1-1.93994,1.3,2.31332,2.31332,0,0,0-1.59,1.89c-.27,1.58-.67,3.13-.96,4.7a13.49073,13.49073,0,0,0-.01,1.95c1.28-.88,2.22-1.52,3.15-2.16,1.05-.72,2.05-1.48,3.5-.97a5.11059,5.11059,0,0,0,1.88-.13,13.67272,13.67272,0,0,0,4.01,4.4c.15-.26.32-.43.33-.59.06994-2.28.18-4.55.12994-6.82-.01-.49-.62994-.97-1-1.42-.3-.36005-.63995-.68-.95-1.01,1.94-2.22,1.94-2.22,5.44-3.26q.95994,5.505,1.94,11c-4.08.87-5.15,3.13-2.94,6.27C500.16,518.01,489.94,516.7,484.2,514.32Zm.64,7.23c-.08-.78-.13-1.24-.16-1.54,3.39.47,6.68.92,10.21,1.4.06.16.23.63.47,1.3C491.75,522.31,488.32,521.93,484.84,521.55Zm15.62.36c-.01.15-.07.3-.15.68006a35.24027,35.24027,0,0,1-3.56-.05,1.416,1.416,0,0,1-.93-.93c-.24-.95-.81-1.07-1.66-1.14-2.61-.21-5.22-.54-7.81994-.81995V515.97c7.85,2.78,15.85,2.11005,23.79,2.11005.07.13995.14.28.21.41-.27.21-.52.55-.82.6-2.36005.4-4.72.87-7.1,1.05C501.11,520.23,500.52,520.65,500.46,521.91Zm11-2.21c.24.94-.27,1.3-1.17,1.44-2.99.45-5.97.94-9.15,1.44.13-.77.21-1.28.25-1.53C504.82,520.59,508.12,520.15,511.46,519.7Zm-4.76-3.12a3.0661,3.0661,0,0,1-.84-3.74c.41-.78,2.4-1.32,3.38-.89a.95761.95761,0,0,1,.49.46c.63,1.5,1.22,3.01,1.87,4.63C509.78,517.33,508.2,517.7,506.7,516.58Zm10.88-5.93c-1.69,1.9-3.35,3.83-5.19,5.94-.26-.58-.31-.73-.39-.86005-1.18-2.04-1.22-3.77,1.12-5.1.55-.32.83-1.13,1.14-1.58a5.55929,5.55929,0,0,1-.95-.71c-1.76-2.11005-3.55-4.19-5.21-6.37006a8.50537,8.50537,0,0,1-.91-2.36c.97-.63,1.84-1.19,2.97-1.92,1.57,1.84,3.26,3.7,4.79,5.67,1.03,1.32,1.78,2.84,2.75,4.21A2.17926,2.17926,0,0,1,517.58,510.65Zm12.91-38.91.25,7.58c-.28,8.12-.93,16.22-3.07,24.09-1.12,4.15-2.69,8.19-4.06,12.27a2.75293,2.75293,0,0,1-.41.59c-.29-.22-.51-.38-.72-.55005,5.9-11.93,5.85-24.49,5.22-37.25h1.46c-.56-.18-1.06994-.35-1.56994-.5l-1.41-6.4a1.52642,1.52642,0,0,0-.27-1.24c-.15-.01-.3-.02-.44-.03-.06,1.07-.12,2.15-.18,3.22l-.22,3.63c-.04.35-.12.93-.17,1.51-.26,2.59-.45,5.18006-.78,7.75a5.18873,5.18873,0,0,1-.93,2.4c-1.29,1.68-2.74,3.23-4.14,4.82a5.6313,5.6313,0,0,1-.76.59c.28-1.84.53-3.5.83-5.45a10.53068,10.53068,0,0,0-2.22,1.44,16.22315,16.22315,0,0,1-9.72,5.52c-2.37.45-4.82.55-7.03.79.73.1,1.69.23,3.04.42-1.99,1.36-3.68,2.51-5.44,3.7-1.43-1.82-2.79-3.52-4.29-5.43,1.13.14,1.94.24,2.79.34-2.98-1.14-5.95-2.1-8.76-3.38-3.49-1.59-6.34-4.45-6.66-6.24,1.09.6,1.88,1.75,3.18,1.91-.16-.58-.26-1.06-.43-1.52a3.51889,3.51889,0,0,0-.4-.63c-.16.17-.31.34-.47.51-.82-.62-1.68-1.2-2.45-1.89a3.88528,3.88528,0,0,1-1.47-2.74c-.27-3.71-.63-7.4-.97-11.1-.03-.38995-.13-.78-.2-1.17-.12.02-.25.04-.38.06-.62,4.29.07,8.52.63,12.8a3.17783,3.17783,0,0,1-.68-1.36c-.18-1.22-.26-2.46-.37-3.69a54.18072,54.18072,0,0,1,1.04-16.58c1.97-8.61005,7.64-14.08,16.09-16.55,6.85-2,13.64-1.24,20.21,1.22a23.36615,23.36615,0,0,1,6.08,3.67,25.11862,25.11862,0,0,1,9.67,18.59C531.55,468.9,530.15,470.41,530.49,471.74Zm-7.85-22.17a21.7296,21.7296,0,0,1,8.16,1.18c.28.1.64.62.58.84a76.208,76.208,0,0,1-2.31,7.41A35.87078,35.87078,0,0,0,522.64,449.57Zm7.42,12.9a4.9404,4.9404,0,0,1-.26-4.43,59.01637,59.01637,0,0,0,1.87-5.92c.31-.98.07-1.65-1.02-1.82-2.43005-.4-4.86-.91-7.31-1.14a4.55028,4.55028,0,0,1-3.21-1.7c.53-.07.92-.14,1.32-.17a39.64981,39.64981,0,0,1,11.81,1.64,1.34479,1.34479,0,0,1,.69,1.1A38.42731,38.42731,0,0,1,530.06,462.47ZM512.64,524.5c.45,1.03.91,2.06,1.38,3.13h.71c-.55-1.16-1.06-2.26-1.58-3.36C512.98,524.35,512.81,524.42,512.64,524.5Zm-5,1.52a10.41456,10.41456,0,0,0-6.64,1.42c-.06-.5-.12-.92-.22-1.75a10.10566,10.10566,0,0,1-1.18,1.94h2.22a3.992,3.992,0,0,1,.6-.25c1.2-.4,2.43-.7,3.65-1.05a7.09131,7.09131,0,0,1,3.94,1.3h.7c-.68-.7-1.34-1.37-1.98-2.03C508.24,525.8,507.92,526.05,507.64,526.02Zm-16.87,1.61H491.41c.03-.34.05-.69.08-1.03-.17-.02-.35-.04-.52-.06C490.91,526.9,490.84,527.27,490.77,527.63Zm-8.64,0h.78c.11005-.36.21-.71.3-1.07.1-.4.17-.81.26-1.21-.12994-.04-.27-.08-.4-.13C482.76,526.03,482.44,526.83,482.13,527.63Z" transform="translate(-468.56936 -439.67403)"/><path d="M494.76616,476.95419c.48407.77407-.0254,1.03156-.76067,1.18809-3.126.66549-6.25232,1.3304-9.3722,2.02391-.56955.1266-1.09786.46543-1.66835.54977-.28756.04251-.88936-.24257-.90491-.41873-.498-5.64156-1.48388-11.28594-.09781-16.93759.00679-.02773.06186-.04362.18335-.12363v3.65778l5.736-.53282c.02023-.09986.06633-.183.04295-.23477-.203-.44952-.41846-.8934-.63021-1.339.42818.17592.9916.235,1.26152.54762,1.285,1.48811,2.93679.81325,4.50347,1.003.05-4.66794.61012-9.06534,3.47724-12.94212-.303,3.28348-.623,6.39213-.859,9.50715a7.49978,7.49978,0,0,0,.15012,3.20061c.48964,1.22755,1.89646.5661,2.88739.73884,4.12493.71906,8.26393,1.35741,12.5343,2.04742v-7.326l.3153-.14566c.57966,1.37273,1.24311,2.71736,1.71556,4.12605.479,1.42811.76921,2.91952,1.174,4.50862.47955-.063.97932-.12181,1.47689-.19559.85464-.12673,1.39012.01967.88951,1.01652l2.42807,1.08v-4.63316l.29637.013c1.041,6.51752.26056,13.01745-.20326,19.52043l-.40323.12355a4.65937,4.65937,0,0,1-.37329-1.378c.12353-2.51588.32118-5.02805.4813-7.54226.02983-.46835.00427-.94022.00427-1.5513L508.58975,478.566c.55652.29716.82907.44836,1.10651.59,2.34864,1.19859,4.71773,2.359,7.03986,3.60691,1.32467.71185,1.42554,1.6437.46751,2.82786l-13.24224-6.87916a12.52747,12.52747,0,0,1,1.22961-1.416,2.9226,2.9226,0,0,1,1.22011-.61159c3.04477-.667,6.10286-1.27317,9.14714-1.94222.9936-.21836,1.916-.41761,2.65268.553a3.4194,3.4194,0,0,0,.76421.55311c.341-2.0641.27-1.9315-1.35277-2.79953a9.46637,9.46637,0,0,0-8.91349-.449,2.86354,2.86354,0,0,1-1.582.12135c1.00906-1.304,2.65506-1.14943,4.19227-1.98844-2.235-.5484-4.24739-1.14855-6.30109-1.52055-2.9072-.52661-5.838-.94518-8.77339-1.28131-.985-.11279-1.46816-.48824-1.577-1.40324-.1695-1.42471-.30632-2.85331-.4686-4.39025l-.41453,5.618-1.86251-.10309-.11028.20834c.71849.52927,1.46805,1.02245,2.14233,1.603a5.608,5.608,0,0,1,.79653,1.11677c-.45239-.13574-.907-.26475-1.35559-.412a.75648.75648,0,0,1-.29517-.20226c-2.11619-2.249-4.75274-2.66139-7.65837-2.22649-1.02225.153-2.06385.17674-3.38037.28224.18879,3.28608.375,6.52663.57086,9.93663l8.53862-1.85178c-2.32154-1.22822-4.36977-2.29935-6.4054-3.39393-1.06263-.57139-2.38716-.99467-1.78622-2.56763,1.33717-1.24632,2.23714-.09171,3.26317.50345,2.96813,1.7217,5.95191,3.41646,8.916,5.145a3.3626,3.3626,0,0,1,.67018.73164Zm17.70151-9.50966-.19344.018-.27346,3.18079,1.10426-.23413Z" transform="translate(-468.56936 -439.67403)"/><path d="M499.971,494.87949a14.00453,14.00453,0,0,1-7.73877-2.13841c-3.13517-2.00512-3.94128-5.34874-2.11977-8.41329a2.69761,2.69761,0,0,1,2.911-1.58211c4.43229.575,8.88167,1.01756,13.31831,1.56138.27936.03424.5266.4781.75136.76112.16371.20612.251.47092.39753.693a5.14348,5.14348,0,0,1-1.28916,7.398C504.63193,494.341,502.76053,494.85585,499.971,494.87949Zm.08487-.80394c.78287-.097,1.70629-.14364,2.59932-.33336,4.43781-.94281,6.00258-4.06,3.90168-7.79087a1.63954,1.63954,0,0,0-1.06752-.703c-4.06924-.55062-8.15537-.98362-12.21454-1.59673a2.00747,2.00747,0,0,0-2.28983.99914,5.01935,5.01935,0,0,0,1.67272,7.27913A15.07672,15.07672,0,0,0,500.05584,494.07555Z" transform="translate(-468.56936 -439.67403)"/><path class="cls-1" d="M505.71,517.08c-5.55.93-15.77-.38-21.51-2.76.1-3.29,2.44-10.43,5.44-16.62,1.61,1.34,3.2,2.66,5.08,4.23a11.4098,11.4098,0,0,1-1.93994,1.3,2.31332,2.31332,0,0,0-1.59,1.89c-.27,1.58-.67,3.13-.96,4.7a13.49073,13.49073,0,0,0-.01,1.95c1.28-.88,2.22-1.52,3.15-2.16,1.05-.72,2.05-1.48,3.5-.97a5.11059,5.11059,0,0,0,1.88-.13,13.67272,13.67272,0,0,0,4.01,4.4c.15-.26.32-.43.33-.59.06994-2.28.18-4.55.12994-6.82-.01-.49-.62994-.97-1-1.42-.3-.36005-.63995-.68-.95-1.01,1.94-2.22,1.94-2.22,5.44-3.26q.95994,5.505,1.94,11C504.57,511.68,503.5,513.94,505.71,517.08Z" transform="translate(-468.56936 -439.67403)"/><path class="cls-1" d="M488.96,497.83c-.63,1.19-1.38,2.32-2.1,3.48a53.08552,53.08552,0,0,1-4.87-4.85c-3.08-3.93-5.98-8-8.89-12.06-1.23-1.71-2.37-3.5-3.43-5.33-.88-1.54-.7-2.06.66-3.17.19-.15.38995-.29.59-.42,2.36005-1.52,3.69-1.07,4.66,1.57a1.28356,1.28356,0,0,1-.44,1.68c-.73.54-1.41,1.12-2.12,1.69.06.11005.12.23.19.35.58-.19,1.17-.39,1.86-.62a47.55774,47.55774,0,0,1,4.48,5.56,17.90428,17.90428,0,0,0,7.36,7,1.99515,1.99515,0,0,1,1.23,1.59,21.40617,21.40617,0,0,0,.8,2.24A1.97165,1.97165,0,0,1,488.96,497.83Z" transform="translate(-468.56936 -439.67403)"/><path class="cls-1" d="M510.01,527.63h-8.19a3.992,3.992,0,0,1,.6-.25c1.2-.4,2.43-.7,3.65-1.05A7.09131,7.09131,0,0,1,510.01,527.63Z" transform="translate(-468.56936 -439.67403)"/><path class="cls-1" d="M515.64,527.77c-.08.11-.27.37-.52.69995l-.39-.84c-.55-1.16-1.06-2.26-1.58-3.36-.17.08-.34.15-.51.23.45,1.03.91,2.06,1.38,3.13h-3.31c-.68-.7-1.34-1.37-1.98-2.03-.49.2-.81.45-1.09.42a10.41456,10.41456,0,0,0-6.64,1.42c-.06-.5-.12-.92-.22-1.75a10.10566,10.10566,0,0,1-1.18,1.94h-8.19c.03-.34.05-.69.08-1.03-.17-.02-.35-.04-.52-.06-.06.36-.12994.73-.2,1.09H482.91c.11005-.36.21-.71.3-1.07.1-.4.17-.81.26-1.21-.12994-.04-.27-.08-.4-.13-.31.81006-.63,1.61005-.94,2.41-.12.3-.23.6-.35.9-.12006-.04-.23-.08-.34-.12006a4.91178,4.91178,0,0,1,.17-.78,36.40218,36.40218,0,0,1,1.61-3.67c7.18,2.09,14.39,1.74,21.6.96,2.46-.26,4.89-.79,7.32-1.25a1.00546,1.00546,0,0,1,1.29.64c.6,1.11,1.34,2.13,2.12,3.32C515.58,527.67,515.61,527.72,515.64,527.77Z" transform="translate(-468.56936 -439.67403)"/><path class="cls-1" d="M517.58,510.65c-1.69,1.9-3.35,3.83-5.19,5.94-.26-.58-.31-.73-.39-.86005-1.18-2.04-1.22-3.77,1.12-5.1.55-.32.83-1.13,1.14-1.58a5.55929,5.55929,0,0,1-.95-.71c-1.76-2.11005-3.55-4.19-5.21-6.37006a8.50537,8.50537,0,0,1-.91-2.36c.97-.63,1.84-1.19,2.97-1.92,1.57,1.84,3.26,3.7,4.79,5.67,1.03,1.32,1.78,2.84,2.75,4.21A2.17926,2.17926,0,0,1,517.58,510.65Z" transform="translate(-468.56936 -439.67403)"/><path class="cls-1" d="M510.34,518.49c-.27.21-.52.55-.82.6-2.36005.4-4.72.87-7.1,1.05-1.31.09-1.9.51-1.96,1.77-.01.15-.07.3-.15.68006a35.24027,35.24027,0,0,1-3.56-.05,1.416,1.416,0,0,1-.93-.93c-.24-.95-.81-1.07-1.66-1.14-2.61-.21-5.22-.54-7.81994-.81995V515.97c7.85,2.78,15.85,2.11005,23.79,2.11005C510.2,518.22,510.27,518.36,510.34,518.49Z" transform="translate(-468.56936 -439.67403)"/><path class="cls-1" d="M489.06,445.02a28.002,28.002,0,0,0-9.7,8.79,23.55556,23.55556,0,0,1-.28-3.01c.06-2.19.24-4.38.35-6.57.05-.86.41-1.19,1.29-1.1A28.20476,28.20476,0,0,1,489.06,445.02Z" transform="translate(-468.56936 -439.67403)"/><path class="cls-1" d="M533.95,450.03A38.42731,38.42731,0,0,1,530.06,462.47a4.9404,4.9404,0,0,1-.26-4.43,59.01637,59.01637,0,0,0,1.87-5.92c.31-.98.07-1.65-1.02-1.82-2.43005-.4-4.86-.91-7.31-1.14a4.55028,4.55028,0,0,1-3.21-1.7c.53-.07.92-.14,1.32-.17a39.64981,39.64981,0,0,1,11.81,1.64A1.34479,1.34479,0,0,1,533.95,450.03Z" transform="translate(-468.56936 -439.67403)"/><path class="cls-1" d="M491.37,443.83a3.21334,3.21334,0,0,1-2.95.6c-2.57-.7-5.21-1.12-7.82995-1.64-.88-.17-1.33.22-1.46,1.11a37.42494,37.42494,0,0,0-.11,10.03,8.50053,8.50053,0,0,1-.63,2.79c-.18-.01-.37-.03-.55-.05a26.17567,26.17567,0,0,1-.59-4.09c.02-3.35.22-6.7.36-10.04.04-1.06.43-1.58,1.68-1.54A29.54049,29.54049,0,0,1,491.37,443.83Z" transform="translate(-468.56936 -439.67403)"/><path class="cls-1" d="M531.38,451.59a76.208,76.208,0,0,1-2.31,7.41,35.87078,35.87078,0,0,0-6.43-9.43,21.7296,21.7296,0,0,1,8.16,1.18C531.08,450.85,531.44,451.37,531.38,451.59Z" transform="translate(-468.56936 -439.67403)"/><path class="cls-1" d="M500.74,504.69c0,1.79-1.55,3.07-3.69,3.05-1.79-.01-3.1-1.12-3.1-2.62.01-1.65,1.74-3.66,3.18-3.68A3.56581,3.56581,0,0,1,500.74,504.69Z" transform="translate(-468.56936 -439.67403)"/><path class="cls-1" d="M511.6,517.04c-1.82.29-3.4.66-4.9-.46a3.0661,3.0661,0,0,1-.84-3.74c.41-.78,2.4-1.32,3.38-.89a.95761.95761,0,0,1,.49.46C510.36,513.91,510.95,515.42,511.6,517.04Z" transform="translate(-468.56936 -439.67403)"/><path class="cls-1" d="M496.55,500.4a8.73853,8.73853,0,0,1-7.66-6.64c1.88.61,3.62.96,4.63,2.9A21.96147,21.96147,0,0,0,496.55,500.4Z" transform="translate(-468.56936 -439.67403)"/><path class="cls-1" d="M509.64,496.77c-3.01,2.75-6.77,3.36-10.35,3.95,1.67-1.23,3.45-2.56,5.24-3.85C505.21,496.39,509.02,496.28,509.64,496.77Z" transform="translate(-468.56936 -439.67403)"/><path class="cls-1" d="M495.36,522.71c-3.61-.4-7.04-.78-10.52-1.16-.08-.78-.13-1.24-.16-1.54,3.39.47,6.68.92,10.21,1.4C494.95,521.57,495.12,522.04,495.36,522.71Z" transform="translate(-468.56936 -439.67403)"/><path class="cls-1" d="M510.29,521.14c-2.99.45-5.97.94-9.15,1.44.13-.77.21-1.28.25-1.53,3.43-.46,6.73-.9,10.07-1.35C511.7,520.64,511.19,521,510.29,521.14Z" transform="translate(-468.56936 -439.67403)"/><path class="cls-1" d="M478.73,495.24c-.24,2.78-.25,5.57-.35,8.36-.02.59,0,1.18,0,1.77h-.37c-.12-4.08-.24-8.16-.37-12.55A2.383,2.383,0,0,1,478.73,495.24Z" transform="translate(-468.56936 -439.67403)"/><path class="cls-1" d="M512.46767,467.44453l.63736,2.96465-1.10426.23413.27346-3.18079Z" transform="translate(-468.56936 -439.67403)"/><path class="cls-1" d="M500.05584,494.07555a15.07672,15.07672,0,0,1-7.39817-2.14567,5.01935,5.01935,0,0,1-1.67272-7.27913,2.00747,2.00747,0,0,1,2.28983-.99914c4.05917.61311,8.1453,1.04611,12.21454,1.59673a1.63954,1.63954,0,0,1,1.06752.703c2.1009,3.73082.53613,6.84806-3.90168,7.79087C501.76213,493.93191,500.83871,493.97859,500.05584,494.07555Z" transform="translate(-468.56936 -439.67403)"/></svg>