<svg t="1596176890699" class="icon" viewBox="0 0 1024 1024" version="1.1" xmlns="http://www.w3.org/2000/svg" p-id="5987" fill="#e60026"><path d="M 837.766 364.816 c -50.8284 -54.1074 -111.313 -91.1997 -187.245 -98.7056 c -7.3237 -0.728725 -18.9833 -5.02822 -20.4042 -9.98353 c -6.59494 -23.064 -12.8255 -46.7841 -14.2831 -70.5404 c -1.63964 -26.5986 20.3678 -44.7435 46.7478 -39.4241 c 16.7243 3.38857 32.392 12.3883 48.2779 19.457 c 10.9673 4.88245 20.9872 12.3883 32.3188 15.9225 c 27.4727 8.48961 53.3788 -7.7245 58.5894 -35.7804 c 4.40882 -23.6837 -4.40882 -42.9219 -22.1535 -58.1522 c -28.8575 -24.7762 -62.998 -37.7482 -100.054 -44.7435 c -70.9775 -13.4083 -152.74 38.7681 -169.648 108.908 c -8.45318 35.0885 -1.7125 68.7549 10.4572 101.511 c 6.48563 17.5259 1.96755 24.5946 -16.0319 30.8615 c -118.308 41.3188 -182.508 155.436 -154.49 276.075 c 16.5056 71.1232 59.4641 121.733 131.862 138.604 c 74.4393 17.3438 136.818 -7.94311 182.62 -69.1919 c 37.0555 -49.5168 39.1322 -105.519 23.9754 -163.197 c -7.94311 -30.2422 -17.198 -60.1564 -26.6714 -92.9479 c 5.57476 1.09309 7.39653 1.20239 9.03612 1.78537 c 125.486 45.4361 188.959 183.858 125.232 318.813 c -63.9091 135.325 -211.911 183.348 -344.362 155.072 c -166.259 -35.5254 -278.955 -210.93 -245.286 -377.62 c 23.6108 -116.924 91.5644 -198.319 200.253 -246.342 c 8.27102 -3.68006 16.7971 -7.25083 24.2667 -12.2789 c 15.5945 -10.5301 24.8857 -25.6876 23.064 -44.6341 c -1.9311 -19.9306 -11.8782 -37.9297 -32.1367 -42.0112 c -16.2141 -3.27924 -36.0353 -3.68006 -50.7191 2.69627 c -166.223 72.1072 -260.848 197.994 -272.869 379.884 c -18.6555 282.566 246.128 504.023 521.296 440.882 c 171.833 -39.4241 293.167 -182.179 303.986 -330.804 c 7.10506 -97.2478 -18.619 -182.763 -85.6253 -254.109 Z m -309.05 234.651 c -39.0595 3.35212 -71.2327 -23.8295 -77.6089 -65.5484 c -11.1131 -72.5441 19.8943 -127.162 85.4791 -151.94 c 12.6069 -4.77315 18.1815 -2.91492 21.9347 10.858 c 8.74466 32.1003 19.4934 63.6176 28.6751 95.6091 c 3.13347 10.9309 3.97156 22.5539 5.8298 33.8857 c -0.218618 42.9219 -25.5779 73.8196 -64.3095 77.1353 Z" p-id="5988"></path></svg>