<svg class="icon" xmlns="http://www.w3.org/2000/svg" viewBox="0 0 136.06377 136.08447" fill="#333538"><path d="M569.02539,501.31554c0,11.16444.09709,22.32991-.02194,33.49307-.19621,18.40317-15.7139,34.06717-34.04572,34.17883q-33.99186.20712-67.986-.02705c-18.01764-.12128-33.79151-15.88234-33.8901-33.85118q-.18651-33.99219.04084-67.98625c.11728-18.005,15.90021-33.86673,33.85227-33.99421q33.99175-.2414,67.98621-.04966c18.04177.0926,33.7931,15.78016,34.00628,33.74364.13643,11.49608.02556,22.9951.02556,34.4928Zm-13.95634-.35833h.071c0-10.83275.10054-21.66668-.02647-32.49794-.14559-12.41424-9.00738-21.48533-21.41954-21.6017q-32.49582-.30465-64.99556-.09512c-13.14356.09978-21.851,8.90075-21.94228,22.11851q-.2227,32.24616.08878,64.49539c.10522,12.74548,9.09611,21.67782,21.795,21.73313q32.49749.14157,64.99623-.06807c12.24387-.06714,21.30928-9.26383,21.41375-21.5861C555.14168,522.62333,555.069,511.79,555.069,500.95721Z" transform="translate(-432.99893 -432.99893)"/><path d="M488.02391,518.71265c0,3.82.03995,6.80922-.00906,9.797-.08007,4.882-2.84986,8.21544-6.77355,8.23677-4.00393.02176-6.93-3.097-7.00533-8.11792-.12753-8.49383-.00744-16.99289.112-25.4883.06535-4.64585-.12829-9.365.60931-13.91925A28.30213,28.30213,0,1,1,492.859,520.444C491.48846,519.94489,490.11269,519.46009,488.02391,518.71265Zm14.89693-39.70642a14.74123,14.74123,0,1,0-.31019,29.48082,14.55022,14.55022,0,0,0,14.828-14.813A14.6995,14.6995,0,0,0,502.92084,479.00623Z" transform="translate(-432.99893 -432.99893)"/></svg>