<?xml version="1.0" encoding="utf-8"?>
<!-- Generator: Adobe Illustrator 21.0.0, SVG Export Plug-In . SVG Version: 6.00 Build 0)  -->
<svg version="1.1" id="图层_1" xmlns="http://www.w3.org/2000/svg" xmlns:xlink="http://www.w3.org/1999/xlink" x="0px" y="0px"
	 viewBox="0 0 1021.7 295" style="enable-background:new 0 0 1021.7 295;" xml:space="preserve">
<style type="text/css">
	.st0{fill:#8B8B8B;}
</style>
<path class="st0" d="M168.3,42.5L168.3,42.5C168.4,19,149.4,0,125.9,0c-23.5,0-42.5,19-42.5,42.5h0.2V68h-5.7C34.9,68.1,0,103,0,146
	c0,43,34.9,78,78,78c1.8,0,3.7-0.1,5.5-0.2V295l19.8-19.8v-55.5c11.3-3.9,21.5-10.3,29.8-18.6l-14-14c-4.6,4.6-9.9,8.4-15.8,11.2
	V87.9h45.3v167.2h19.8V68h-0.1V42.5z M83.4,203.8c-1.8,0.2-3.6,0.3-5.5,0.3c-32.1,0-58.1-26-58.1-58.1c0-32.1,26-58.1,58-58.1h5.6
	V203.8z M148.6,68h-45.5V42.5c0-12.6,10.2-22.9,22.7-22.9c12.5,0,22.7,10.3,22.7,22.9h0.1V68z"/>
<path class="st0" d="M278.3,0.3v221.1c0,18.7-15,33.8-33.7,34h-19.8c-18.8,0-34-15.2-34-34V0.3h19.8v221.1c0,7.8,6.4,14.2,14.2,14.2
	h19.5c7.8,0,14.2-6.3,14.2-14.2h0V0.3H278.3z"/>
<path class="st0" d="M317.5,0h-19.8v255.1h19.8c70.4,0,127.6-57.1,127.6-127.6S387.9,0,317.5,0z M317.5,235.3V19.8
	c59.5,0,107.7,48.2,107.7,107.7S377,235.3,317.5,235.3z"/>
<rect x="465" y="0" class="st0" width="19.8" height="255.1"/>
<polygon class="st0" points="592.6,0 592.6,19.8 558.6,19.8 558.6,255.1 538.8,255.1 538.8,19.8 504.7,19.8 504.7,0 "/>
<path class="st0" d="M779.9,0c-70.4,0-127.6,57.1-127.6,127.6s57.1,127.6,127.6,127.6S907.4,198,907.4,127.6S850.3,0,779.9,0z
	 M779.9,235.3c-59.5,0-107.7-48.2-107.7-107.7c0-59.5,48.2-107.7,107.7-107.7c59.5,0,107.7,48.2,107.7,107.7
	C887.6,187.1,839.4,235.3,779.9,235.3z"/>
<polygon class="st0" points="1021.7,0 1021.7,255.1 1001.9,255.1 1001.9,82.7 947.2,28.1 947.2,255.1 927.4,255.1 927.4,0 947.2,0 
	1001.9,54.7 1001.9,0 "/>
<rect x="612.5" y="0" class="st0" width="19.8" height="255.1"/>
</svg>
