<?xml version="1.0" encoding="utf-8"?>
<!-- Generator: Adobe Illustrator 21.0.0, SVG Export Plug-In . SVG Version: 6.00 Build 0)  -->
<svg version="1.1" id="图层_1" xmlns="http://www.w3.org/2000/svg" xmlns:xlink="http://www.w3.org/1999/xlink" x="0px" y="0px"
	 viewBox="0 0 85 159.7" style="enable-background:new 0 0 85 159.7;" xml:space="preserve">
<style type="text/css">
	.st0{fill:#FFFFFF;}
</style>
<path class="st0" d="M85,38.7c0-7.8-6.3-14.2-14.2-14.2c-2.6,0-5,0.7-7.1,1.9c6.8-3.9,9.1-12.6,5.2-19.4C65,0.3,56.4-2,49.6,1.9
	c-4.5,2.6-7,7.3-7.1,12.1c0-2.4-0.6-4.8-1.9-6.9C36.7,0.3,28-2,21.3,1.9c-6.8,3.9-9.1,12.6-5.2,19.4c1.2,2.2,3,3.9,5.2,5.2
	c-2.1-1.2-4.5-1.9-7.1-1.9C6.3,24.6,0,30.9,0,38.7c0,7.8,6.3,14.2,14.2,14.2c2.6,0,5-0.7,7.1-1.9c-6.8,3.9-9.1,12.6-5.2,19.4
	c3.9,6.8,12.6,9.1,19.4,5.2c4.5-2.6,7-7.3,7.1-12.1c0,2.4,0.6,4.8,1.9,6.9c3.9,6.8,12.6,9.1,19.4,5.2c6.8-3.9,9.1-12.6,5.2-19.4
	c-1.2-2.1-3-3.9-5.2-5.2c2.1,1.2,4.5,1.9,7.1,1.9C78.7,52.9,85,46.6,85,38.7z M56.7,38.7c0,7.8-6.4,14.2-14.2,14.2
	c-7.8,0-14.2-6.3-14.2-14.2c0-7.8,6.4-14.2,14.2-14.2C50.3,24.6,56.7,30.9,56.7,38.7z"/>
<path class="st0" d="M76.5,125.6c-18.8,0-34,15.2-34,34c0-18.8-15.2-34-34-34c18.8,0,34-15.2,34-34
	C42.5,110.4,57.7,125.6,76.5,125.6z"/>
</svg>
